<?xml version="1.0" encoding="UTF-8" standalone="no"?>
<!DOCTYPE svg PUBLIC "-//W3C//DTD SVG 1.1//EN" "http://www.w3.org/Graphics/SVG/1.1/DTD/svg11.dtd">
<svg width="100%" height="100%" viewBox="0 0 1000 1000" version="1.1" xmlns="http://www.w3.org/2000/svg" xmlns:xlink="http://www.w3.org/1999/xlink" xml:space="preserve" xmlns:serif="http://www.serif.com/" style="fill-rule:evenodd;clip-rule:evenodd;stroke-linejoin:round;stroke-miterlimit:2;">
    <g>
        <g transform="matrix(0.404211,0,0,0.404211,500,500)">
            <g transform="matrix(1,0,0,1,-1266.666667,-1266.666667)">
                <g transform="matrix(4.166667,0,0,4.166667,1266.666667,1266.666667)">
                    <path d="M0,288C126.2,288 196.356,288 242.178,242.178C288,196.356 288,126.2 288,0C288,-126.2 288,-196.356 242.178,-242.178C196.356,-288 126.2,-288 0,-288C-126.2,-288 -196.356,-288 -242.178,-242.178C-288,-196.356 -288,-126.2 -288,0C-288,126.2 -288,196.356 -242.178,242.178C-196.356,288 -126.2,288 0,288Z" style="fill:rgb(0,10,15);fill-rule:nonzero;"/>
                </g>
            </g>
        </g>
        <g transform="matrix(1,0,0,1,42.06642,-36.35)">
            <g transform="matrix(1,0,0,1,-164.16591,111.121744)">
                <path d="M505.549,678.935L308.749,678.935L407.149,465.635L505.549,678.935ZM326.149,667.835L488.149,667.835L407.149,492.035L326.149,667.835Z" style="fill:rgb(219,211,194);fill-rule:nonzero;"/>
                <path d="M557.449,599.135C557.449,612.335 560.799,624.535 567.499,635.735C574.199,646.935 583.199,655.835 594.499,662.435C605.799,669.035 618.049,672.335 631.249,672.335C644.849,672.335 657.149,669.635 668.149,664.235C679.149,658.835 687.799,651.335 694.099,641.735C700.399,632.135 703.649,621.335 703.849,609.335L714.649,609.335C714.649,623.135 710.999,635.685 703.699,646.985C696.399,658.285 686.399,667.185 673.699,673.685C660.999,680.185 646.849,683.435 631.249,683.435C616.049,683.435 601.949,679.635 588.949,672.035C575.949,664.435 565.649,654.185 558.049,641.285C550.449,628.385 546.649,614.335 546.649,599.135L546.649,549.935C546.649,534.735 550.399,520.685 557.899,507.785C565.399,494.885 575.599,484.635 588.499,477.035C601.399,469.435 615.449,465.635 630.649,465.635C646.049,465.635 660.099,468.885 672.799,475.385C685.499,481.885 695.549,490.785 702.949,502.085C710.349,513.385 714.049,525.935 714.049,539.735L703.249,539.735C703.049,527.735 699.749,516.935 693.349,507.335C686.949,497.735 678.299,490.235 667.399,484.835C656.499,479.435 644.249,476.735 630.649,476.735C617.449,476.735 605.249,480.035 594.049,486.635C582.849,493.235 573.949,502.135 567.349,513.335C560.749,524.535 557.449,536.735 557.449,549.935L557.449,599.135Z" style="fill:rgb(219,211,194);fill-rule:nonzero;"/>
                <path d="M935.449,470.135L935.449,481.235L856.549,481.235L856.549,678.935L845.749,678.935L845.749,481.235L766.849,481.235L766.849,470.135L935.449,470.135Z" style="fill:rgb(219,211,194);fill-rule:nonzero;"/>
            </g>
            <g transform="matrix(1,0,0,1,-126.388277,61.121744)">
                <path d="M286.422,269.821L286.422,217.021L421.422,217.021L421.422,269.821L359.322,269.821L359.322,373.021L421.422,373.021L421.422,425.821L286.422,425.821L286.422,373.021L348.522,373.021L348.522,269.821L286.422,269.821Z" style="fill:rgb(217,243,255);fill-rule:nonzero;"/>
                <path d="M494.322,425.821L494.322,217.021L506.022,217.021L651.822,358.621L651.822,217.021L662.922,217.021L662.922,425.821L651.822,425.821L651.822,374.221L505.422,231.421L505.422,425.821L494.322,425.821Z" style="fill:rgb(217,243,255);fill-rule:nonzero;"/>
                <path d="M882.222,217.021L882.222,228.121L803.322,228.121L803.322,425.821L792.522,425.821L792.522,228.121L713.622,228.121L713.622,217.021L882.222,217.021Z" style="fill:rgb(217,243,255);fill-rule:nonzero;"/>
            </g>
        </g>
    </g>
    <g>
        <g transform="matrix(1.736111,0,0,1.736111,500,500)">
            <path d="M0,288C126.2,288 196.356,288 242.178,242.178C288,196.356 288,126.2 288,0C288,-126.2 288,-196.356 242.178,-242.178C196.356,-288 126.2,-288 0,-288C-126.2,-288 -196.356,-288 -242.178,-242.178C-288,-196.356 -288,-126.2 -288,0C-288,126.2 -288,196.356 -242.178,242.178C-196.356,288 -126.2,288 0,288Z" style="fill:rgb(228,221,215);fill-rule:nonzero;"/>
        </g>
        <g transform="matrix(1,0,0,1,42.06642,-36.35)">
            <g transform="matrix(1,0,0,1,-164.16591,111.121744)">
                <path d="M505.549,678.935L308.749,678.935L407.149,465.635L505.549,678.935ZM326.149,667.835L488.149,667.835L407.149,492.035L326.149,667.835Z" style="fill:rgb(255,171,0);fill-rule:nonzero;"/>
                <path d="M557.449,599.135C557.449,612.335 560.799,624.535 567.499,635.735C574.199,646.935 583.199,655.835 594.499,662.435C605.799,669.035 618.049,672.335 631.249,672.335C644.849,672.335 657.149,669.635 668.149,664.235C679.149,658.835 687.799,651.335 694.099,641.735C700.399,632.135 703.649,621.335 703.849,609.335L714.649,609.335C714.649,623.135 710.999,635.685 703.699,646.985C696.399,658.285 686.399,667.185 673.699,673.685C660.999,680.185 646.849,683.435 631.249,683.435C616.049,683.435 601.949,679.635 588.949,672.035C575.949,664.435 565.649,654.185 558.049,641.285C550.449,628.385 546.649,614.335 546.649,599.135L546.649,549.935C546.649,534.735 550.399,520.685 557.899,507.785C565.399,494.885 575.599,484.635 588.499,477.035C601.399,469.435 615.449,465.635 630.649,465.635C646.049,465.635 660.099,468.885 672.799,475.385C685.499,481.885 695.549,490.785 702.949,502.085C710.349,513.385 714.049,525.935 714.049,539.735L703.249,539.735C703.049,527.735 699.749,516.935 693.349,507.335C686.949,497.735 678.299,490.235 667.399,484.835C656.499,479.435 644.249,476.735 630.649,476.735C617.449,476.735 605.249,480.035 594.049,486.635C582.849,493.235 573.949,502.135 567.349,513.335C560.749,524.535 557.449,536.735 557.449,549.935L557.449,599.135Z" style="fill:rgb(255,171,0);fill-rule:nonzero;"/>
                <path d="M935.449,470.135L935.449,481.235L856.549,481.235L856.549,678.935L845.749,678.935L845.749,481.235L766.849,481.235L766.849,470.135L935.449,470.135Z" style="fill:rgb(255,171,0);fill-rule:nonzero;"/>
            </g>
            <g transform="matrix(1,0,0,1,-126.388277,61.121744)">
                <path d="M286.422,269.821L286.422,217.021L421.422,217.021L421.422,269.821L359.322,269.821L359.322,373.021L421.422,373.021L421.422,425.821L286.422,425.821L286.422,373.021L348.522,373.021L348.522,269.821L286.422,269.821Z" style="fill:rgb(0,110,159);fill-rule:nonzero;"/>
                <path d="M494.322,425.821L494.322,217.021L506.022,217.021L651.822,358.621L651.822,217.021L662.922,217.021L662.922,425.821L651.822,425.821L651.822,374.221L505.422,231.421L505.422,425.821L494.322,425.821Z" style="fill:rgb(0,110,159);fill-rule:nonzero;"/>
                <path d="M882.222,217.021L882.222,228.121L803.322,228.121L803.322,425.821L792.522,425.821L792.522,228.121L713.622,228.121L713.622,217.021L882.222,217.021Z" style="fill:rgb(0,110,159);fill-rule:nonzero;"/>
            </g>
        </g>
    </g>
</svg>
