<?xml version="1.0" encoding="UTF-8" standalone="no"?>
<!DOCTYPE svg PUBLIC "-//W3C//DTD SVG 1.1//EN" "http://www.w3.org/Graphics/SVG/1.1/DTD/svg11.dtd">
<svg width="100%" height="100%" viewBox="0 0 300 400" version="1.1" xmlns="http://www.w3.org/2000/svg" xmlns:xlink="http://www.w3.org/1999/xlink" xml:space="preserve" xmlns:serif="http://www.serif.com/" style="fill-rule:evenodd;clip-rule:evenodd;stroke-linejoin:round;stroke-miterlimit:2;">
    <g transform="matrix(1,0,0,1,-362,-312)">
        <g transform="matrix(1,0,0,1,185.243533,130.523932)">
            <g transform="matrix(1.318948,0,0,1.318948,-56.376041,-57.881346)">
                <rect x="176.756" y="181.476" width="75.818" height="75.818" style="fill:rgb(212,135,246);"/>
            </g>
            <g transform="matrix(1.318948,0,0,1.318948,-56.376041,142.118654)">
                <rect x="176.756" y="181.476" width="75.818" height="75.818" style="fill:rgb(213,134,249);"/>
            </g>
            <g transform="matrix(1.318948,0,0,1.318948,-56.376041,242.118654)">
                <rect x="176.756" y="181.476" width="75.818" height="75.818" style="fill:rgb(211,113,255);"/>
            </g>
            <g transform="matrix(1.318948,0,0,1.318948,43.623959,242.118654)">
                <rect x="176.756" y="181.476" width="75.818" height="75.818" style="fill:rgb(165,79,204);"/>
            </g>
            <g transform="matrix(1.318948,0,0,1.318948,143.623959,242.118654)">
                <path d="M252.574,181.476C252.574,223.321 218.602,257.294 176.756,257.294L176.756,181.476L252.574,181.476Z" style="fill:rgb(139,96,158);"/>
            </g>
            <g transform="matrix(1.318948,0,0,1.318948,143.623959,142.118654)">
                <rect x="176.756" y="181.476" width="75.818" height="75.818" style="fill:rgb(156,81,191);"/>
            </g>
            <g transform="matrix(1.318948,0,0,1.318948,143.623959,42.118654)">
                <path d="M252.574,257.294L176.756,257.294L176.756,181.476C218.602,181.476 252.574,215.449 252.574,257.294Z" style="fill:rgb(217,134,255);"/>
            </g>
            <g transform="matrix(1.318948,0,0,1.318948,43.623959,42.118654)">
                <rect x="176.756" y="181.476" width="75.818" height="75.818" style="fill:rgb(205,113,247);"/>
            </g>
        </g>
    </g>
</svg>
